<svg id="svg" version="1.1" xmlns="http://www.w3.org/2000/svg" xmlns:xlink="http://www.w3.org/1999/xlink" width="400" height="400" viewBox="0, 0, 400,400"><g id="svgg"><path id="path0" d="M261.450 1.250 C 261.313 1.938,261.200 30.072,261.200 63.770 C 261.200 112.232,261.095 125.153,260.700 125.579 C 260.296 126.014,260.307 126.056,260.758 125.799 C 261.192 125.552,261.271 125.715,261.115 126.532 C 260.973 127.273,261.106 127.643,261.565 127.789 C 261.923 127.902,262.554 128.624,262.968 129.392 C 263.381 130.160,264.986 131.916,266.534 133.294 C 268.082 134.672,269.671 136.111,270.065 136.491 C 271.536 137.908,274.145 139.600,274.860 139.600 C 275.267 139.600,275.600 139.735,275.600 139.900 C 275.600 140.065,289.325 140.155,306.100 140.100 C 322.875 140.045,350.128 139.955,366.662 139.900 C 384.885 139.839,396.634 139.945,396.496 140.168 C 396.365 140.381,396.591 140.407,397.034 140.229 C 397.893 139.886,398.755 139.676,399.500 139.631 C 399.898 139.606,400.000 125.357,400.000 69.800 L 400.000 0.000 330.850 -0.000 L 261.700 -0.000 261.450 1.250 M398.133 141.000 C 398.133 141.270,398.523 141.389,399.067 141.285 C 399.580 141.187,400.000 141.059,400.000 141.000 C 400.000 140.941,399.580 140.813,399.067 140.715 C 398.523 140.611,398.133 140.730,398.133 141.000 M277.062 141.100 C 276.894 141.371,318.163 141.370,375.400 141.096 C 387.280 141.039,370.056 140.950,337.124 140.896 C 304.192 140.843,277.164 140.935,277.062 141.100 " stroke="none" fill="#fc9f22" fill-rule="evenodd"></path><path id="path1" d="M260.000 62.557 C 260.000 119.232,259.941 125.137,259.367 125.357 C 259.019 125.491,231.283 125.600,197.732 125.600 L 136.729 125.600 134.265 126.752 C 132.909 127.385,131.260 128.375,130.600 128.951 C 129.940 129.528,129.228 129.999,129.018 130.000 C 128.808 130.000,100.278 158.328,65.618 192.950 C 30.958 227.573,2.060 256.151,1.400 256.456 L 0.200 257.011 0.099 328.505 L -0.002 400.000 71.798 400.000 L 143.597 400.000 143.699 338.700 L 143.800 277.400 204.200 277.200 L 264.600 277.000 266.600 275.840 C 272.284 272.542,273.348 271.664,274.656 269.198 C 275.065 268.427,275.804 267.230,276.299 266.538 L 277.197 265.280 277.299 204.540 L 277.400 143.800 337.581 143.699 C 376.901 143.633,397.901 143.459,398.161 143.199 C 398.381 142.979,398.884 142.800,399.280 142.800 C 399.747 142.800,400.000 142.502,400.000 141.953 C 400.000 141.282,399.807 141.144,399.067 141.285 C 398.523 141.389,398.133 141.270,398.133 141.000 C 398.133 140.730,398.523 140.611,399.067 140.715 C 399.744 140.844,400.000 140.710,400.000 140.223 C 400.000 139.530,398.771 139.533,397.034 140.229 C 396.591 140.407,396.364 140.381,396.496 140.168 C 396.634 139.945,384.885 139.839,366.662 139.900 C 350.128 139.955,322.875 140.045,306.100 140.100 C 289.325 140.155,275.600 140.065,275.600 139.900 C 275.600 139.735,275.267 139.600,274.860 139.600 C 274.032 139.600,271.794 138.071,269.393 135.867 C 268.517 135.062,267.662 134.403,267.493 134.402 C 266.962 134.399,263.745 130.835,262.964 129.384 C 262.552 128.620,261.923 127.902,261.565 127.789 C 261.106 127.643,260.973 127.273,261.115 126.532 C 261.272 125.710,261.195 125.554,260.758 125.817 C 260.302 126.092,260.291 126.042,260.694 125.543 C 261.600 124.424,261.606 -0.000,260.700 -0.000 C 260.036 -0.000,260.000 3.246,260.000 62.557 M375.400 141.096 C 318.163 141.370,276.894 141.371,277.062 141.100 C 277.164 140.935,304.192 140.843,337.124 140.896 C 370.056 140.950,387.280 141.039,375.400 141.096 M131.054 268.442 C 133.780 269.218,133.606 264.810,133.597 332.809 C 133.590 393.348,133.517 397.110,132.327 397.845 C 131.851 398.139,9.345 275.803,6.969 272.660 C 4.894 269.917,4.842 269.606,6.300 268.708 C 7.537 267.947,128.410 267.689,131.054 268.442 " stroke="none" fill="#338bdc" fill-rule="evenodd"></path><path id="path2" d="M66.010 192.295 L 3.800 254.590 66.189 192.395 C 100.502 158.188,128.657 130.155,128.755 130.100 C 128.853 130.045,128.773 130.000,128.577 130.000 C 128.381 130.000,100.226 158.033,66.010 192.295 M6.300 268.708 C 4.842 269.606,4.894 269.917,6.969 272.660 C 9.345 275.803,131.851 398.139,132.327 397.845 C 133.517 397.110,133.590 393.348,133.597 332.809 C 133.606 264.810,133.780 269.218,131.054 268.442 C 128.410 267.689,7.537 267.947,6.300 268.708 " stroke="none" fill="#2c74b4" fill-rule="evenodd"></path></g></svg>